<svg xmlns="http://www.w3.org/2000/svg" width="216.297" height="52.125" viewBox="0 0 216.297 52.125">
  <g id="Group_209" data-name="Group 209" transform="translate(-78.707 -89)">
    <g id="Group_208" data-name="Group 208" transform="translate(-0.293)">
      <g id="Group_63" data-name="Group 63" transform="translate(79 89)">
        <path id="Path_9" data-name="Path 9" d="M562.262,116.512l-13.519,28.535-13.518-28.535h-6.5l.71,1.5c-.056,5.058-1.464,10.466-4.292,16.493-2.659,5.678-6.455,10.026-10.68,12.257-8.629,4.54-14.893,1.048-16.819-2.219a8.8,8.8,0,0,1-.912-2.219c3.109-.676,6.151-1.442,7.728-1.983,5.306-1.78,9.091-3.943,11.941-6.8,3.639-3.673,5.678-10.229,2.625-14.408-1.6-2.2-4.844-4.517-11.175-3.109-7.368,1.633-12.55,7.672-14.949,12.764a23.7,23.7,0,0,0-2.5,8.832c-1.341.237-2.681.394-2.647.394l-.552,5.824a19.356,19.356,0,0,0,3.774-.383,15.192,15.192,0,0,0,1.622,4.067c3,5.081,8.179,7.2,13.609,7.2a24.048,24.048,0,0,0,10.973-2.771c5.351-2.816,10.06-8.122,13.259-14.949a56.831,56.831,0,0,0,3.515-9.486L546.5,153.88h4.484l17.777-37.356h-6.5ZM498.2,131.27c2.264-4.833,6.556-8.573,10.927-9.542a10.74,10.74,0,0,1,2.366-.293c1.983,0,2.591.822,2.828,1.149.89,1.217.09,4.675-2.062,6.849-2.174,2.2-5.25,3.909-9.643,5.385-1.4.462-3.74,1.059-6.185,1.6A20.568,20.568,0,0,1,498.2,131.27Z" transform="translate(-432.314 -102.589)" fill="#89dc65"/>
        <path id="Path_10" data-name="Path 10" d="M50.345,123.7l-8.719,25.854-.563,1.645-.7-1.6-11.1-25.471h-1.69l-10.939,25.28-.7,1.611-.563-1.667L6.793,123.7H0l12.527,37.4h5.52l9.767-23.184.62-1.465.62,1.465L38.866,161.1H44.4l12.5-37.4Z" transform="translate(0 -109.786)" fill="#89dc65"/>
        <path id="Path_11" data-name="Path 11" d="M1224.233,113.3a19.319,19.319,0,0,0-13.89,5.565,19.771,19.771,0,0,0-5.543,14.082c0,11.2,8.359,19.647,19.433,19.647s19.433-8.449,19.433-19.647S1235.318,113.3,1224.233,113.3Zm0,33.03c-7.48,0-12.91-5.633-12.91-13.383s5.43-13.383,12.91-13.383,12.911,5.633,12.911,13.383S1231.724,146.33,1224.233,146.33Z" transform="translate(-1069.074 -100.558)" fill="#89dc65"/>
        <rect id="Rectangle_3" data-name="Rectangle 3" width="6.613" height="51.28" transform="translate(180.079)" fill="#89dc65"/>
        <path id="Path_12" data-name="Path 12" d="M1727.984,81.559a7.987,7.987,0,0,1-5.373,1.96c-3.38,0-5.081-1.859-5.081-5.543l.034-19.591V57.71h9.271V52.235h-9.328V43.2h-6.557v9.046H1704v5.475h6.928V58.4l.023,21.033c0,6.489,3.774,10.207,10.365,10.207a10.444,10.444,0,0,0,6.939-2.343l.079-.068V81.277C1728.141,81.435,1727.995,81.548,1727.984,81.559Z" transform="translate(-1512.037 -38.356)" fill="#89dc65"/>
      </g>
    </g>
  </g>
</svg>
